<?xml version="1.0" encoding="UTF-8" standalone="no"?>
<!DOCTYPE svg PUBLIC "-//W3C//DTD SVG 1.1//EN" "http://www.w3.org/Graphics/SVG/1.1/DTD/svg11.dtd">
<!-- Created with Vectornator (http://vectornator.io/) -->
<svg height="100%" stroke-miterlimit="10" style="fill-rule:nonzero;clip-rule:evenodd;stroke-linecap:round;stroke-linejoin:round;" version="1.1" viewBox="0 0 636.87 206.547" width="100%" xml:space="preserve" xmlns="http://www.w3.org/2000/svg" xmlns:vectornator="http://vectornator.io" xmlns:xlink="http://www.w3.org/1999/xlink">
<defs/>
<clipPath id="ArtboardFrame">
<rect height="206.547" width="636.87" x="0" y="0"/>
</clipPath>
<g clip-path="url(#ArtboardFrame)" id="E" vectornator:layerName="E">
<path d="M189.25 0L189.25 225L234.25 225L346.75 225L346.75 180L234.25 180L234.25 135L346.75 135L346.75 90L234.25 90L234.25 45L346.75 45L346.75 0L234.25 0L189.25 0Z" fill="#000102" fill-rule="nonzero" opacity="0" stroke="none" vectornator:layerName="Kurve 4"/>
<path d="M504.625 1.035L549.625 1.035L549.625 226.035L504.625 226.035L504.625 1.035Z" fill="#000102" fill-rule="nonzero" opacity="0" stroke="none" vectornator:layerName="Rechteck 6"/>
<path d="M549.625 1.035L662.125 1.035L662.125 46.035L549.625 46.035L549.625 1.035Z" fill="#000102" fill-rule="nonzero" opacity="0" stroke="none" vectornator:layerName="Rechteck 7"/>
<path d="M549.625 91.035L662.125 91.035L662.125 136.035L549.625 136.035L549.625 91.035Z" fill="#000102" fill-rule="nonzero" opacity="0" stroke="none" vectornator:layerName="Rechteck 8"/>
<path d="M549.625 181.035L662.125 181.035L662.125 226.035L549.625 226.035L549.625 181.035Z" fill="#000102" fill-rule="nonzero" opacity="0" stroke="none" vectornator:layerName="Rechteck 9"/>
<path d="M662.125 0.000111292L707.125 0.000111292L707.125 225L662.125 225L662.125 0.000111292Z" fill="#000102" fill-rule="nonzero" opacity="0" stroke="none" vectornator:layerName="Rechteck 10"/>
<path d="M707.125 0.000111292L707.125 45.0001C707.253 44.9999 707.372 45.0001 707.5 45.0001C744.779 45.0001 775 55.0737 775 67.5001C775 79.9265 744.779 90.0001 707.5 90.0001C707.372 90.0001 707.253 90.0003 707.125 90.0001L707.125 135C707.251 135 707.373 135 707.5 135C769.632 135 820 104.779 820 67.5001C820 30.2209 769.632 0.000111292 707.5 0.000111292C707.373 0.000111292 707.251-0.000139115 707.125 0.000111292Z" fill="#000102" fill-rule="nonzero" opacity="0" stroke="none" vectornator:layerName="Kurve 3"/>
<path d="M741.062 90.0001L786.062 90.0001L786.062 225L741.062 225L741.062 90.0001Z" fill="#000102" fill-rule="nonzero" opacity="0" stroke="none" vectornator:layerName="Rechteck 11"/>
<path d="M346.75 0L346.75 225L391.75 225L391.75 135C391.876 135 391.999 135 392.125 135C403.811 135 415.091 133.921 425.688 131.938L425.688 225L470.688 225L470.688 115.781C491.613 103.524 504.625 86.4328 504.625 67.5C504.625 30.2208 454.257 0 392.125 0C391.998 0 391.876-0.000250408 391.75 0L346.75 0ZM391.75 45C391.878 44.9998 391.997 45 392.125 45C429.404 45 459.625 55.0736 459.625 67.5C459.625 79.9264 429.404 90 392.125 90C391.997 90 391.878 90.0002 391.75 90L391.75 45Z" fill="#000102" fill-rule="nonzero" opacity="0" stroke="none" vectornator:layerName="Kurve 1"/>
<path d="M96.888 2.02369C44.4209 2.02369 1.88796 44.5566 1.88796 97.0237C1.88796 149.491 44.4209 192.024 96.888 192.024L597.482 192.024L597.482 204.524L634.982 179.524L597.482 154.524L597.482 167.024L96.888 167.024C58.228 167.024 26.888 135.684 26.888 97.0237C26.888 58.3638 58.228 27.0237 96.888 27.0237L96.888 2.02369ZM121.888 2.02369L121.888 142.93L215.263 142.93L215.263 118.617L151.388 118.617L151.388 83.2112L211.638 83.2112L211.638 60.1799L151.388 60.1799L151.388 26.3362L215.263 26.3362L215.263 2.02369L121.888 2.02369ZM236.482 2.02369L236.482 142.93L327.607 142.93L327.607 118.617L265.982 118.617L265.982 2.02369L236.482 2.02369ZM345.075 2.02369L345.075 142.93L438.45 142.93L438.45 118.617L374.575 118.617L374.575 83.2112L434.825 83.2112L434.825 60.1799L374.575 60.1799L374.575 26.3362L438.45 26.3362L438.45 2.02369L345.075 2.02369ZM459.669 2.02369L459.669 142.93L489.169 142.93L489.169 91.9299L511.357 91.9299C511.617 91.9299 511.863 91.9299 512.107 91.9299C512.351 91.9299 512.566 91.9299 512.794 91.9299L539.013 142.93L572.482 142.93L542.794 87.4612C550.607 84.4013 556.798 79.2652 561.388 72.0549C565.978 64.8447 568.263 56.6135 568.263 47.3362L568.263 47.1487C568.263 37.7086 566.267 29.6207 562.263 22.8987C558.259 16.1767 552.501 11.0269 544.982 7.42994C537.462 3.83293 528.405 2.02369 517.825 2.02369L459.669 2.02369ZM489.169 25.1174L514.263 25.1174C521.522 25.1174 527.325 27.1148 531.638 31.0862C535.951 35.0575 538.107 40.4091 538.107 47.1799L538.107 47.3987C538.107 54.2997 536.038 59.7099 531.888 63.6487C527.738 67.5875 521.993 69.5549 514.669 69.5549L489.169 69.5549L489.169 25.1174Z" fill="#000102" fill-rule="nonzero" opacity="1" stroke="none" vectornator:layerName="Kurve 5"/>
</g>
</svg>
